<svg id="visual" viewBox="0 0 960 540" width="960" height="540" xmlns="http://www.w3.org/2000/svg" xmlns:xlink="http://www.w3.org/1999/xlink" version="1.1"><rect x="0" y="0" width="960" height="540" fill="#FFFFFF"></rect><defs><linearGradient id="grad1_0" x1="43.8%" y1="100%" x2="100%" y2="0%"><stop offset="14.444444444444446%" stop-color="#ffffff" stop-opacity="1"></stop><stop offset="85.55555555555554%" stop-color="#ffffff" stop-opacity="1"></stop></linearGradient></defs><defs><linearGradient id="grad2_0" x1="0%" y1="100%" x2="56.3%" y2="0%"><stop offset="14.444444444444446%" stop-color="#ffffff" stop-opacity="1"></stop><stop offset="85.55555555555554%" stop-color="#ffffff" stop-opacity="1"></stop></linearGradient></defs><g transform="translate(960, 540)"><path d="M-297 0C-275.6 -43.8 -254.2 -87.5 -232.1 -134C-210 -180.5 -187.3 -229.6 -148.5 -257.2C-109.7 -284.8 -54.9 -290.9 0 -297L0 0Z" fill="#0091ea"></path></g><g transform="translate(0, 0)"><path d="M297 0C277 44.6 256.9 89.1 234.7 135.5C212.4 181.9 188 230 148.5 257.2C109 284.4 54.5 290.7 0 297L0 0Z" fill="#0091ea"></path></g></svg>